# xmcd
#
# Track frame offsets:
#	150
#	18635
#	44163
#	60903
#	81763
#	116420
#	143225
#	171935
#	199988
#	225620
#	245385
#
# Disc length: 3553 seconds
#
# Revision: 1
# Processed by: cddbd v1.5.1PL0 Copyright (c) Steve Scherf et al.
# Submitted via: audiograbber 1.83.01
#
DISCID=950ddf0b
DTITLE=Jeff Healey Band - 1990-06-12 - Electric Lady Land Studios - New York - 
DTITLE="For Your Love" - FM
DYEAR=1900
DGENRE=
TTITLE0=My Little Girl
TTITLE1=I Think I Love You Too Much
TTITLE2=Confidence Man
TTITLE3=Full Circle
TTITLE4=Blue Jean Blues
TTITLE5=Roadhouse Blues
TTITLE6=Angel Eyes
TTITLE7=See The Light
TTITLE8=White Room
TTITLE9=Life Beyond The Sky
TTITLE10=While My Guitar Gently Weeps
EXTD=
EXTT0=
EXTT1=
EXTT2=
EXTT3=
EXTT4=
EXTT5=
EXTT6=
EXTT7=
EXTT8=
EXTT9=
EXTT10=
PLAYORDER=
